<svg xmlns="http://www.w3.org/2000/svg" viewBox="3034 -48.721 30.443 30.443">
  <defs>
    <style>
      .cls-1 {
        fill: #2d763d;
        stroke: #bdd341;
        stroke-width: 2px;
      }

      .cls-2 {
        fill: #bdd341;
      }

      .cls-3 {
        stroke: none;
      }

      .cls-4 {
        fill: none;
      }
    </style>
  </defs>
  <g id="Group_19" data-name="Group 19" transform="translate(1762 -48.721)">
    <g id="Ellipse_3" data-name="Ellipse 3" class="cls-1" transform="translate(1272)">
      <circle class="cls-3" cx="15.221" cy="15.221" r="15.221"/>
      <circle class="cls-4" cx="15.221" cy="15.221" r="14.221"/>
    </g>
    <path id="Path_34" data-name="Path 34" class="cls-2" d="M110.033,128.022h10.978v-7.11H108.792l-.26-2.212h-2.287a.245.245,0,0,0,0,.49H108.1l1.036,8.781a1.625,1.625,0,0,0-.21.911,1.315,1.315,0,0,0,1.286,1.346h.31a1.366,1.366,0,0,0-.3.866,1.287,1.287,0,1,0,2.572,0,1.4,1.4,0,0,0-.3-.866h4.258a1.366,1.366,0,0,0-.3.866,1.287,1.287,0,1,0,2.572,0,1.4,1.4,0,0,0-.3-.866h1.1a.245.245,0,1,0,0-.49h-9.612a.829.829,0,0,1-.8-.861C109.412,128.327,109.5,128.062,110.033,128.022Zm1.471,3.933a.863.863,0,1,1,.8-.861A.829.829,0,0,1,111.5,131.955Zm6.224,0a.863.863,0,1,1,.8-.861A.829.829,0,0,1,117.728,131.955Zm-7.52-4.423h-.04a1.36,1.36,0,0,0-.145,0h-.45l-.205-1.721h2.5v1.721h-1.616A.124.124,0,0,0,110.208,127.531Zm7.46-2.207h-2.412v-1.446h2.412Zm.485-1.441h2.372v1.446h-2.372Zm-2.9,1.931h2.412v1.721h-2.412Zm-.49,1.721H112.36v-1.721h2.407v1.721Zm.49-4.143v-2h2.412v2Zm-.49,0H112.36v-2h2.407v2Zm0,.49v1.446H112.36v-1.446Zm-2.892,1.441h-2.562l-.17-1.446h2.732Zm6.279,2.212v-1.721h2.372v1.721Zm2.372-4.143h-2.372v-2h2.372Zm-8.651-1.991v2h-2.787l-.235-2Z" transform="translate(1172.995 -109.752)"/>
  </g>
</svg>
