<svg version="1.1" xmlns="http://www.w3.org/2000/svg" xmlns:xlink="http://www.w3.org/1999/xlink" viewBox="0 0 300 159.1" xml:space="preserve">
	<path d="M80.4,3.6c0.4-2,2.4-3.6,4.4-3.6h142.8c2,0,3.3,1.6,2.8,3.6l-21.1,97.7c-0.4,2-2.4,3.6-4.4,3.6H62.2c-2,0-3.3-1.6-2.8-3.6 L80.4,3.6z M115.8,117c0.4-2,2.4-3.6,4.4-3.6h83c2,0,3.3,1.6,2.8,3.6l-1.9,8.6c-0.4,2-2.4,3.6-4.4,3.6h-83.1c-2,0-3.3-1.6-2.8-3.6 L115.8,117L115.8,117z M240.3,115.7c-12,0-23.8,9.7-26.4,21.7c-2.6,12,5,21.7,17,21.7c12,0,23.8-9.7,26.4-21.7 C259.9,125.4,252.3,115.7,240.3,115.7L240.3,115.7z M86.9,115.7c-12,0-23.8,9.7-26.4,21.7c-2.6,12,5,21.7,17,21.7 s23.8-9.7,26.4-21.7C106.5,125.4,98.9,115.7,86.9,115.7L86.9,115.7z M234,30l-15.3,71.2c-0.4,2,0.8,3.6,2.8,3.6h23.2 c27,0,24.3,24.4,24.8,28.2c0.2,2.1,2.3,3.3,4.3,3.3H285c2,0,4-1.6,4.4-3.6l10.3-48c0.4-2,0.2-5-0.4-6.7l-18.1-48.5 c-0.6-1.7-2.8-3.1-4.8-3.1l0,0h-38.1C236.4,26.4,234.4,28,234,30z M243.5,39.6c0.4-1.8,2.1-3.2,3.9-3.2h21.7c1.8,0,2.4,0.9,3.2,3.2 l9.8,26.3c1,2.8-0.8,4.6-3.3,4.6H240c-1.7,0-2.9-1.4-2.5-3.2L243.5,39.6z"/>
	<path d="M67.3,8.6c-1,4.7-5.7,8.5-10.4,8.5H6.9c-4.7,0-7.7-3.8-6.7-8.5C1.2,3.8,5.9,0,10.6,0h50.1C65.4-0.3,68.3,3.8,67.3,8.6 L67.3,8.6z"/>
	<path d="M59.9,43c-1,4.7-5.7,8.5-10.4,8.5H13.4c-4.7,0-7.7-3.8-6.7-8.5c1-4.7,5.7-8.5,10.4-8.5h36.1C58,34.1,60.9,38.3,59.9,43 L59.9,43z"/>
	<path d="M52.5,77.4L52.5,77.4c-1,4.7-5.6,8.5-10.4,8.5h-21c-4.7,0-7.7-3.8-6.7-8.5l0,0c1-4.7,5.7-8.5,10.4-8.5h21 C50.5,68.8,53.5,72.7,52.5,77.4z"/>
</svg>
