<svg version="1.1" xmlns="http://www.w3.org/2000/svg" xmlns:xlink="http://www.w3.org/1999/xlink" viewBox="0 0 215 49.4" xml:space="preserve">
	<path fill="#BFD730" d="M168.2,38.4l0.2-0.9l-0.2-0.3c0-0.1-0.3-6-0.1-6.1h-0.2l-0.2,0c-0.1-0.3,0.4-0.5,0.3-1c-0.3-1.1-0.3-2.3,0-3.4 c0.2-0.5,5.2-3.5,6.1-4.8c0.6-0.7,1.2-1.1,1.7-1.7c2.3-1.9,2.6-2.7,2.6-2.9c0.2-0.3,0.4-0.7,0.5-1v0h0.2c0.3-0.1,1.1-1.4,1.2-1.7 c-0.1-0.1-0.2,0-0.3,0c-0.1,0.1-0.1,0.2-0.2,0.2h-0.1l-0.1,0c0.1-0.1,0.2-0.4,0.3-0.4c0.2,0,0.3,0.1,0.5,0h0.1 c0.2-0.2,0.2-0.6,0.3-0.6c0.4-0.1,0.4-0.5,0.4-0.7l-0.1-0.1c0-0.2,0.6-0.3,0.5-0.6l-0.1,0c0-0.2,1.4-2.9,1.2-3.8 c0.2-0.5,0.3-1.1,0.4-1.6c0-0.2,0-0.4,0-0.6c0-0.1-0.2-0.2-0.3-0.2c0.1-0.3,0.3-0.5,0.2-0.8c0.1-0.2,0.1-0.5,0-0.7 c-0.3-1.3-0.9-2.5-1.9-3.5c-0.4,0-0.4-0.4-0.7-0.3l-0.1,0c-0.5-0.1-0.9-0.3-1.3-0.6h-0.2c-0.1,0-0.1,0.1-0.2,0.1 c-0.3,0.1-0.7-0.4-1-0.3c-1.5-0.2-3-0.1-4.5,0.3c-3.4,0.8-5.5,2.3-9.1,4.8l0,0c-0.3,0.2-0.3,0.7-0.8,0.8c-0.5,0.1-1.5,1.3-1.8,1.7 c-0.4,0.4-0.6,0.9-1.2,1.2c-0.4,0.1-0.1,0.6-0.8,0.7c0.1,0.2-0.6,1.5-1.2,1.6c-0.1-0.4,0.9-1.2,1.2-1.6c0.4-1.4,3.3-3.3,4.3-4.8 l0.1,0c0.9-0.5,1.6-1.1,2.2-1.8c-1.3,0.3-3,2-3.7,2.9c0,0,0,0,0,0.1c0.1,0.2-0.5,0.6-0.8,0.7c-1.2,1.5-2.9,3.2-2.8,3.2 c0-0.1-0.2,0-0.2,0l0.1,0.2c-0.2,0.3-0.3,0.8-0.6,1l-0.1,0c0.1-0.2,0.2-0.4,0.3-0.6c-0.5,0.1-3,3.9-2.9,4.3l0.1,0.1l-0.3,0.2 c0,0.6-1,1.3-0.9,1.6c0,0,0,0,0.1,0c-1.1,0.8-0.8,2.2-1.2,3.2l-0.2,0.4l-0.1,0.2c-0.2,0.6-0.3,1.2-0.1,1.8c0,0.1,0.7,0.6,0.8,0.7 l0.3,0.2c0,0,0.2,0.1,0.2,0.1c0.4,0.7,2.8,0.7,3.5,0.6c0.7,0.1,1.4,0.1,2.1-0.1c0.2,0,1.1-0.4,1.1-0.6c-0.3-1.1-4.4,1.2-5.2-1.3 c-0.1-0.5,0.2-1,0-1.4l-0.1-0.2c-0.2-0.5,0.2-0.6,0-1.3c0.3-0.6,0.8-1.5,0.7-1.7c0,0,0-0.1-0.1-0.1c0.4-0.2,0.4-0.3,0.4-0.5 c0-0.1,0-0.2-0.1-0.2c-0.2-0.6,1.4-2.2,1.5-3.4c0-0.1,0.5-0.3,0.7-0.7c0.2-0.3,0-1.3,0.6-1.5l0.1,0c-0.1,0.1-0.2,0.3-0.3,0.5 c0.1,0,0.2,0.1,0.2,0.1c0.3-0.1,0.9-1,1.1-1.1c0.1-0.1,0.4-0.1,0.4-0.3l-0.2,0c0,0-0.1,0-0.1,0c-0.1,0-0.2-0.3-0.3-0.4l0.1-0.2 c0.2,0.1,0.4,0.2,0.6,0.2c0.5-0.1,1.2-1.3,1.6-1.7c0.3-0.4,0.4-0.9,0.4-1.3l0.1-0.1l0.1,0.1v0.2c0,0.1,0.3,0.2,0.4,0.2 c0.7-0.4,1.4-1,1.9-1.7l-0.2-0.2l0.2-0.1c0.2,0,0.3,0.1,0.5,0.1c0.7-0.2,2.8-2.2,3.9-2.5c0.5-0.2,1-0.4,1.5-0.7 c0.5-0.3,1-0.5,1.6-0.7c0.3-0.1,0.4-0.1,0.8-0.2l0.2-0.1c3.5-0.8,5.3-0.1,6.1,2.5c0.1,0.2,0.1,0.5,0.1,0.7c0.1,0.1,0.2,0.2,0.2,0.4 c0.5,1.8-0.3,5.7-1.8,8.1c-0.1,0.2-2,3.8-2.2,4c-0.7,0.9-1.5,1.7-2.4,2.5l0.1,0c0.2-0.1,0.4-0.2,0.5-0.4c-0.2,0.5-0.6,0.9-1,1.2 l-0.6,0.5c-1.3,1-2.8,2.9-3.8,3.1c-0.1,0-0.1,0-0.2,0c0.1-0.3,1-0.7,1.2-1c-0.7,0.2-1.1,0.9-1.8,1.1c-0.1,0-0.5,0.1-0.6,0 c-0.4-1.2,0.2-2.5,0-3.2l-0.1-0.1c-0.6-2,0.8-5,0.2-7c-0.1-0.5,0.1-1,0-1.4c-0.1-0.1-0.2-0.2-0.2-0.3c-0.1-0.2,0.2-0.5,0.1-0.7 c-0.2-0.6-0.7-0.5-0.8-0.9c-0.2-0.5-0.7-0.8-1.5-0.6c-0.7,0.2-0.9,1.7-0.8,2.2c0.3,1-0.3,1.9-0.3,2.8c0.1,1.2,0.1,2.4,0,3.5 c-0.1,0.5-0.1,1.1,0.1,1.7c-0.3,1.2-0.3,2.4-0.1,3.5c-0.4,1.1,0.4,2.5,0.1,3.7l-0.1,0.2c0.4,1.3,0,2.5,0.3,3.5c0,0,0,0,0.1,0.1 c0.3,0.8,0.4,7.5,0.6,8.3c0.3,1,0.7,2.3,2.4,1.9c0.8-0.2,0.2-0.8,0.7-1c0-0.5-0.1-1-0.2-1.5L168.2,38.4z M180.9,12.6l0.2,0.1l0,0.1 c-0.4,0.3-0.3,1-0.6,1l-0.1-0.1C180.5,13.4,180.7,13,180.9,12.6 M179.4,15.4c0,0.1,0,0.2,0,0.2c-0.3,0.2-0.3,0.5-0.5,0.6l-0.1-0.1 C178.9,15.8,179.1,15.6,179.4,15.4 M165.9,38.9l0-0.2c0-0.1,0-0.2-0.1-0.2s0-0.2-0.1-0.2c-0.1-0.4-0.5-6.5-0.5-7 c-0.1,0-0.1-0.1-0.1-0.2c-0.2-0.8,0.1-2.1-0.1-3.1c0-0.2-0.1-1.2,0.2-1.2l0.1,0.1c-0.1,0.6,0,1.2,0.1,1.9c0.4,1.5,0,1.2,0,2.3 C165.3,31.6,166.3,38.4,165.9,38.9 M171.5,21.3L171.5,21.3c-0.3,0.1-1.3,0.8-1.2,1c0,0.1,0,0.1,0.1,0.1 C170.9,22.3,171.2,21.6,171.5,21.3 M173.7,19.3l-0.3,0c-0.3,0.3-1.9,1.6-1.9,2C172.3,21.1,173.1,19.8,173.7,19.3 M182.5,20.5 c0,0,0,0,0.1,0c-0.2,0-0.3,0-0.5,0.1C182.3,20.5,182.4,20.5,182.5,20.5 M177.9,21c0.1-0.1,0.2-0.2,0.3-0.3 C178.1,20.8,178,20.8,177.9,21 M182.4,20.5c0.1,0,0.1,0,0.2,0C182.5,20.5,182.4,20.5,182.4,20.5 M177.7,21.3 c0.1-0.1,0.2-0.1,0.2-0.2l-0.1-0.1L177.7,21.3L177.7,21.3z M213.6,16.6l0.8-0.9h0c0.1-0.3,0.3-0.6,0.6-0.9c-1,0.9-8.6,7.7-8.9,7.7 c-0.8-0.1-1.5-0.3-2.2-0.7c-0.8-0.5-1.4-1.3-1.6-2.3c-0.1-0.8-0.1-1.6,0.1-2.4l-0.1,0c0.4-0.5,1.4-3.1,1.8-3.3 c0.3-0.2,1.1-1.2,1.4-1.3c0.2,0,0.6,0.3,0.7,0.4c0.2,0.4,0.7,0.5,0.9,1.1c0.1,0.2,0.1,0.4,0,0.6h0c0.1,0.6-0.4,1.3-0.3,1.9l0,0.1 c-0.2,0.3-0.3,0.7-0.3,1.1l0.1,0.1c0,0.1-0.1,0.1-0.1,0.2c0.1,0.3,0.9,0.5,1.2,0.4c0.7-0.3,1.3-0.8,1.8-1.3c0.5-0.6,0.3-2.5,0.3-3.6 l-0.2-0.2l0.1-0.2c-0.8-0.4-0.4-0.8-1.7-1.3c-1.1-0.4-2.2-0.4-3.3,0c-1.6,0.3-0.9,0.8-2.3,1l-0.2,0c-0.6,0.1-2,2.6-1.9,3 c0.1,0.5-0.6,0.2-0.4,1.7l0.1,0.1c-0.3,0.5-0.1,1.5,0.1,2c0.3,0.9,0.9,1.3,1.1,1.9h0c0.3-0.1,1.8,1.2,2.3,1.5c0.3,0.2,1,0.3,1.1,0.6 c0.1,0.5-0.9,1.5-1.1,1.9c-0.3,0.5-0.5,1-0.6,1.5c-0.2,0.4-0.5,0.8-0.5,1.2c-0.1,0.7-1.2,1-0.8,2.6c0.1,0.3,0.5,0.5,0.8,0.6h0 c0.5,0.2,1,0.2,1.5,0.1c1.2-0.3,2.3-1,3.2-1.9l0,0.1c0.4-0.2,1.1-1.2,1.8-1.6h0c0.1-0.4,0.4-0.7,0.7-1h0c0.4-0.2,0.6-0.7,0.5-1.1 l-0.2-0.2c0-0.1,0-0.2,0-0.3c-0.1-0.4-0.8-0.8-1.2-1.1c-0.4-0.4-0.8-0.8-1.3-1.2c0.2-0.9,7.7-6.5,7.5-7.5 C214.3,15.9,214,16.3,213.6,16.6 M204.4,26.1c-0.1,0-0.4,1.6-0.8,1.7l-0.1-0.1c-0.2-0.8,0.8-1.5,0.7-2.3c0.2-0.2,0.5-0.5,0.7-0.7 c0-0.2,0-0.8,0.3-1c0.3,0.1,0.3,0.4,0.4,0.6C205.5,25.1,204.4,24.9,204.4,26.1L204.4,26.1z M207.4,25.4c-0.2,0.6-0.4,1.1-0.8,1.5 l0-0.1c-0.5,0.7-1.1,1.3-1.7,1.9c-0.1,0-0.2,0-0.2,0c0-0.1,0.2-0.4,0.2-0.4c-0.2-0.7,0-0.4,0-0.9l-0.1,0c0.6-0.1,0.4-1.3,0.4-1.6 l-0.1,0.1c0.4-0.4,0.5-1.5,0.8-1.6C206.4,24.6,207,25,207.4,25.4 M200.1,28.2c-0.4,0.5-0.8,0.9-1.2,1.3c-0.3-0.1-0.3-0.1-0.3-0.2 c0,0,0,0,0-0.1c-0.3-1.3-0.4-2.7-0.7-4.1c0.4-0.4-0.1-2-0.1-2.5c0-0.7,0.4-5,0.8-5.5c0,0-0.1-0.1-0.1-0.1c-0.1-0.5,0.3-2.5,0.7-2.7 c0.2-0.1,1.4-0.5,1.4-0.8c-0.4,0-0.9,0.1-1.3,0.1l-0.2-0.1c0.6-1.3,0.6-2.9,1.1-4.4c-0.1-0.5,0.3-0.7,0.3-1c-0.5-1-1.5-1.5-2.6-1.5 c-0.4,0.1-0.4,0.6-0.4,1c0.1,0.2-0.4,1-0.4,1.4c0,0.9-0.6,1.9-0.5,2.7c0.1,0.9-0.5,1.8-0.4,2.5c0.1,0.7-1.5,1-2.7,1.2l-1,0.2 c-0.1,0-0.6,0.1-0.6,0.3c0.1,0.5,0.7,0.5,1.3,0.4c0.4-0.1,0.8-0.2,1-0.2s1.4-0.2,1.4,0c-0.3,1-0.5,2.1-0.5,3.2 c-0.2,0.6-0.2,1.3-0.1,1.9c0.1,0.3,0.1,0.6,0,1l-0.1,0.4v0c0,0.5,0,1.1,0.1,1.6c0,0,0.1,0.1,0.1,0.1c0,0.1-0.1,0.7-0.1,0.9 c-0.1,0.4-0.1,0.7,0,1.1c-0.2,0.4-0.4,0.7-0.8,0.8c-1.9,0.3-2.3-3.3-1.8-4.3c0.3-0.5,0.1-1.2-0.4-1.5c-0.2-0.1-0.3-0.1-0.5-0.1 c-1.1,0-2.5-1.3-2.8-2.3c-0.2-0.6-0.8-0.9-1.4-0.7c-0.6,0.2-0.9,0.7-0.7,1.3c0.5,1.9,0.6,3.9,0.4,5.9c-0.1,0.8-0.5,3.5-1.4,3.8 c-0.3,0.1-0.6,0.4-0.7,0.7c-0.1,0-0.2,0-0.2,0.1h-0.2l0,0c0.2,0,0.4-0.2,0.5-0.4l-0.8-0.2c-0.1-0.1-0.1-0.2-0.1-0.3 c-0.2-0.5-0.2-1-0.3-1.5c0-0.1-0.2-0.5,0-0.5c0.1,0,0.1-0.1,0.1-0.1c0-0.8-0.1-1.7-0.4-2.5c-0.1-1,0-2,0.2-3v0c0-0.2,0-0.5-0.1-0.7 c-0.1-0.2-0.3-0.1-0.4-0.4l-0.1,0.1l-0.3,0l-0.2,0.1l0-0.1c-0.2,0.1-0.3,0.2-0.5,0.3v0c-0.2,0.1-0.3,0.3-0.4,0.4l-0.1,0 c-0.2,0.1-0.4,0.2-0.5,0.3c-0.4,0.5-1.5,2.2-1.3,2.7l-0.1,0.2l0.1,0.1l-0.1,0.4l-0.1-0.1l0,0.1l0.1,0.1c-0.3,0.3-0.7,0.9-0.6,1.3 l0.1,0c-0.1,0.4-0.2,0.7-0.5,1l0.1,0v0.1c-0.3,0.2-0.4,0.5-0.4,0.9h0l-0.2,0.2l0.1,0c0.1,0.4-0.4,0.5-0.4,0.8h0 c-0.3,0.2-0.5,0.6-0.4,1v0c0,0.1-0.3,0.4-0.3,0.6h0l0,0.2l-0.2,0.1c-0.6,0.4-1.1,1-1.4,1.6c-0.2,0.1-0.1-0.1-0.2-0.1 c-0.2-1.7-0.1-3.4,0.5-5v0c0-0.6,0.2-1.2,0.5-1.7c0.1-0.7,0.3-1.3,0.5-1.9c-0.1-0.3,0.2-0.9,0.5-1.2l-0.2-0.1l0.1-0.1l-0.1-0.1 c0.3-0.2,0.5-0.6,0.6-1l-0.2,0.1c-0.1-0.2,1-1,1.2-1.1c-0.2,0.1-0.3,0.2-0.4,0.4c0.3-0.2,0.6-0.4,0.9-0.5c0.4-0.1,0.9,0.2,1.2,0.3 c0.7,0.2,1.4,0.2,2,0c-0.2,0-0.4,0-0.4-0.1l0.3-0.2l0.3,0.1c0-0.1-0.4-0.1-0.4-0.3l0.1-0.1l0.3,0v0l-0.1-0.1l0-0.1 c-0.1,0-0.2,0-0.3-0.1c-0.8-0.4-1.7-0.6-2.7-0.5l0.1,0.1c-0.1,0-0.2,0-0.3,0c-0.3,0.1-0.6,0.2-0.9,0.4c0,0,0-0.1,0,0 c-0.2,0.1-0.4,0.2-0.5,0.4c-0.4,0.3-0.8,0.5-1.2,0.7c-0.8,0.8-1.5,1.6-2.1,2.6c0,0-0.3,0.4-0.3,0.4l-0.2,1.2c0,0-0.2,0.1-0.2,0.1 l-0.1,0.4c-0.1,0.3-0.2,0.6-0.3,1c-0.3,0.9-0.5,1.9-0.6,2.9c-0.2,1-0.1,2.1,0.2,3.1c0.3,0.8,0.9,1.4,1.7,1.7l0.2-0.1 c0.1,0,0.4,0,0.4,0c0.8-0.2,1.3-0.7,2.1-1v0c0.3-0.4,0.6-0.6,0.9-1c0.7-1,0.4-1,1.4-2.1c0.2-0.5,0.4-1,0.6-1.5 c0-0.4,0.7-1.1,0.6-1.5c0,0,0.2,0.1,0.2,0.2c0.2,0.5,0.1,0.9,0.3,1.5v0.1l0.1,0c0.2,0.5,0.1,1,0.3,1.4c0.1,0.2,0.4,0.4,0.5,0.6 c0.1,0.5,0.5,0.9,1,1c0.4,0.1,0.7,0.2,1.1,0.2l0-0.1c0.2,0,0.3,0,0.5,0c0.1,0,0.3-0.2,0.4-0.2l0.1,0l0.2-0.2l0.1,0.1 c0,0,0.1,0,0.1-0.1c0.2,0,0.3,0,0.5-0.1c1.8-0.6,2.4-2.7,2.7-4.4c0.3-1.4,0.4-2.8,0.3-4.2c0.3,0.2,0.6,0.3,0.9,0.4 c-0.4,2.7,1,6,4,6.1c0.6,0,1.1-0.1,1.6-0.4c0.4,1.1,0.9,2.1,1.6,2.2c0.6,0.1,1,0.6,1.9,0.4c0.4-0.1,0.7-0.2,1-0.5 c0.4-0.5,0.6-1.1,0.6-1.8C200.9,28.4,200.5,28.2,200.1,28.2 M181.9,20.6L181.9,20.6z"/>
	<path fill="#BCD331" d="M21.6,6.3C9.7,6.3,0,15.9,0,27.8s9.7,21.6,21.6,21.6c11.9,0,21.6-9.7,21.6-21.6C43.1,15.9,33.5,6.3,21.6,6.3z  M21.6,46.6c-10.4,0-18.8-8.4-18.8-18.8c0-10.4,8.4-18.8,18.8-18.8c10.4,0,18.8,8.4,18.8,18.8C40.3,38.2,31.9,46.6,21.6,46.6z  M12.4,23.8h9.1v9.2h-2.7v-1.2c-1.3,0.8-2.8,1.2-4.3,1.2c-0.2,0-0.3,0-0.5,0c-4.7-0.1-8.4-4-8.3-8.7c0.1-4.7,4-8.4,8.7-8.3 c1.5,0,2.9,0.3,4.2,1v-1.2h2.7v4.4h-2.7v-0.1c-1.1-1.2-2.7-1.9-4.3-1.8c-3.3,0-6,2.7-6.1,6.1c0,3.4,2.7,6.2,6.1,6.2 c1.6,0,3.2-0.6,4.4-1.7v-2.4h-6.4V23.8z M37.4,23.7L37.4,23.7L37.4,23.7l0.1,4.2h-2.7v-1.6h-7.1v5.1h6.5v2.7h-6.5V39h2.4v2.7h-7.2 V39H25V26.3h-2.2v-2.7H37.4z M59,28.8L59,28.8l-0.2,0L59,28.8z M65.8,29.7c-1.1,0-2,0.3-2,1.8v4h-1.6l-0.6-1.9 c-1.3,1.4-3.1,2.2-5,2.3c-5.3,0-8.6-3.2-8.6-8.1c0-4.8,3.5-8.1,8.9-8.1c1.2,0,2.4,0.1,3.5,0.5c0.5,0.2,1.1,0.4,1.7,0.5 c0.4,0,0.5-0.4,0.5-0.6h0.8v4.5h-0.9c0-2.4-2.5-3.5-5-3.5c-4.4,0-5.9,3.2-5.9,7c0,3.1,1.3,6.6,5.1,6.6c1.9,0,4.2-1.2,4.2-3v-0.8 c-0.2-1-1.7-1.1-2-1.1H59v-1h7v0.9H65.8z M73.5,28.3C73.4,28.3,73.4,28.3,73.5,28.3c-0.5,0-0.9-0.1-1.2-0.4c-0.4-0.5-0.3-1-0.8-1 c-0.7,0-1.8,1.9-1.8,3v2.9c0,1.3,0.4,1.8,1.6,1.8h0.2v0.9h-6.6v-0.9h0.2c1.2,0,1.6-0.5,1.6-1.8v-5.1c0-1.3-0.4-1.8-1.6-1.8h-0.2 v-0.9h3.9c0.2,0,0.5-0.1,0.7-0.1v2.7h0.1c0.6-1.4,1.8-2.8,3.4-2.8c1,0,1.8,0.7,1.9,1.7c0,0,0,0.1,0,0.1C75,27.5,74.3,28.3,73.5,28.3 z M80.2,24.7c-0.2,0-0.4,0-0.5,0c-3,0.1-5.3,2.6-5.2,5.6c0,0.2,0,0.4,0,0.5c0.2,3,2.7,5.2,5.7,5.1c2.9,0,4.7-1.4,5.3-3.9h-1.2 c-0.4,1.6-1.9,2.7-3.5,2.7c-2.5,0-3.1-2.3-3.1-4.1h7.9v-0.3c0-0.2,0-0.3,0-0.5C85.4,26.8,83,24.6,80.2,24.7z M77.5,29.3 c0-1.5,0.7-3.6,2.6-3.6c1.9,0,2.4,2.3,2.4,3.6H77.5z M91.6,24.7c-0.2,0-0.4,0-0.5,0c-3,0.1-5.3,2.6-5.2,5.6c0,0.2,0,0.4,0,0.5 c0.2,3,2.7,5.2,5.7,5.1c2.8,0,4.7-1.4,5.3-3.9h-1.2c-0.4,1.6-1.9,2.7-3.5,2.7c-2.5,0-3.1-2.3-3.1-4.1h7.9v-0.3c0-0.2,0-0.3,0-0.5 C96.8,26.8,94.4,24.6,91.6,24.7z M89,29.3c0-1.5,0.7-3.6,2.6-3.6c1.9,0,2.4,2.3,2.4,3.6H89z M110.5,34.8v0.7h-6.2v-0.9h0.2 c0.8,0,1.3-0.3,1.3-1.3v-4.9c0.1-0.9-0.5-1.7-1.4-1.9c-0.1,0-0.3,0-0.4,0c-1.5,0-2.5,1.2-2.5,2.8v3.8c0,1.1,0.2,1.4,1.1,1.4h0.4v0.9 h-6.2v-0.9h0.2c1.2,0,1.6-0.5,1.6-1.8v-5.1h-0.1c0-1.3-0.4-1.8-1.6-1.8h-0.2v-0.9h3.9c0.2,0,0.5-0.1,0.7-0.1v1.9 c0.9-1.3,2.4-2.1,3.9-2.1c1.9,0,3.4,1.1,3.4,3.7V33c0,1.3,0.2,1.8,1.6,1.8H110.5z"/>
	<path fill="#377D3D" d="M109.6,34.6h0.2c1.1,0,2-0.3,2-1.5V22.5c0-1.2-0.9-1.4-2-1.4h-0.2v-0.9h13.2v4.5h-1.1v-0.2c0-1.9-0.6-3-2.7-3 h-4.2v5.6h1.9c1.4,0,1.9-0.5,1.9-1.9v-0.5h1.1v5.9h-1.1v-0.5c0-1.3-0.5-1.9-1.9-1.9h-1.9v4.4c0,1.5,0.9,1.8,2,1.8h0.2v1h-7.4V34.6z  M133,33c0.2,1.4-0.9,2.7-2.3,2.8c-0.1,0-0.2,0-0.4,0c-1.2,0.1-2.2-0.8-2.3-2c0,0,0-0.1,0-0.1l0,0c-0.8,1.3-2.2,2.1-3.7,2.1 c-1.7,0-3.4-1-3.4-2.9c0-2.2,1.8-2.9,3.5-3.2s3.5-0.6,3.5-2.3c0.1-1-0.6-1.9-1.6-2c-0.1,0-0.2,0-0.3,0c-0.8,0-1.7,0.5-1.7,0.9 c0,0.3,0.4,0.5,0.4,1.1c0,0.9-0.9,1.3-1.7,1.3c-0.8,0.1-1.5-0.6-1.6-1.4c0,0,0-0.1,0-0.1c0-1.5,2-2.6,4.2-2.6c3,0,4.8,0.8,4.8,3.3 v5.1c0,0.6,0.3,0.8,0.6,0.8c0.6,0,0.8-0.5,0.8-1.1v-1h0.9L133,33L133,33z M125.5,34.2c1.4-0.1,2.5-1.2,2.6-2.6v-2.1 c-1.2,1.1-4,1-4,3c-0.1,0.7,0.4,1.4,1.2,1.6C125.2,34.2,125.4,34.2,125.5,34.2 M132.1,34.6h0.2c1.2,0,1.6-0.5,1.6-1.8v-5.1 c0-1.3-0.4-1.8-1.6-1.8h-0.2v-0.9h3.9c0.2,0,0.5-0.1,0.7-0.1v2.7h0.1c0.6-1.4,1.8-2.9,3.4-2.9c1,0,1.8,0.7,1.9,1.7c0,0,0,0.1,0,0.1 c0.1,0.9-0.6,1.6-1.5,1.7c0,0-0.1,0-0.1,0c-0.4,0-0.8-0.1-1.1-0.4c-0.4-0.5-0.3-1-0.8-1c-0.7,0-1.8,1.9-1.8,3v2.8 c0,1.3,0.4,1.8,1.6,1.8h0.2v0.9h-6.6V34.6L132.1,34.6z M142.9,27.7c0-1.3-0.4-1.8-1.6-1.8h-0.2v-0.9h3.9c0.2,0,0.5-0.1,0.7-0.1v1.9 l0,0c0.9-1.3,2.4-2.1,3.9-2.1c1.4-0.1,2.8,0.7,3.3,2.1c0.9-1.3,2.4-2.1,3.9-2.1c2,0,3.4,1.1,3.4,3.7v4.7c0,1.2,0.3,1.6,1.6,1.6h0.2 v0.7h-6.2v-0.9h0.2c0.8,0,1.3-0.3,1.3-1.5v-4.7c0.1-0.9-0.5-1.7-1.4-1.9c-0.1,0-0.3,0-0.4,0c-1.5,0-2.5,1.2-2.5,2.9v4 c0,1,0.4,1.2,1.4,1.2h0.1v0.9h-5.8v-0.9h0.2c0.8,0,1.3-0.3,1.3-1.3v-4.9c0.1-0.9-0.5-1.7-1.4-1.9c-0.1,0-0.3,0-0.4,0 c-1.5,0-2.5,1.2-2.5,2.9v3.8c0,1.1,0.2,1.4,1.1,1.4h0.4v0.9h-6.2v-0.9h0.2c1.2,0,1.6-0.5,1.6-1.8v-5.1H142.9z"/>
</svg>
